<svg width="332" height="484" viewBox="0 0 332 484" fill="none" xmlns="http://www.w3.org/2000/svg">
<g clip-path="url(#clip0_215_222)">
<rect width="332" height="484" fill="white"/>
<path d="M10.342 39.812C7.63533 39.812 5.25733 39.5027 3.208 38.884C1.19733 38.2653 -0.484666 37.376 -1.838 36.216C-3.19133 35.056 -4.19667 33.664 -4.854 32.04C-5.47267 30.3773 -5.74333 28.5407 -5.666 26.53L3.034 24.616C3.11133 26.3947 3.47867 27.8447 4.136 28.966C4.832 30.0487 5.76 30.8607 6.92 31.402C8.08 31.9047 9.37533 32.156 10.806 32.156C11.966 32.156 12.9907 32.0207 13.88 31.75C14.7693 31.4407 15.4653 31.0347 15.968 30.532C16.5093 29.9907 16.78 29.372 16.78 28.676C16.78 27.748 16.432 26.994 15.736 26.414C15.04 25.7953 14.0733 25.2733 12.836 24.848C11.6373 24.4227 10.2647 23.9973 8.718 23.572C7.05533 23.108 5.39267 22.6053 3.73 22.064C2.106 21.484 0.617334 20.7687 -0.736 19.918C-2.08933 19.0673 -3.19133 17.9653 -4.042 16.612C-4.854 15.2587 -5.26 13.5767 -5.26 11.566C-5.26 9.09133 -4.64133 6.984 -3.404 5.244C-2.128 3.504 -0.388 2.18933 1.816 1.3C4.05867 0.371998 6.61067 -0.0920014 9.472 -0.0920014C12.488 -0.0920014 15.1753 0.429999 17.534 1.474C19.8927 2.47933 21.71 3.968 22.986 5.94C24.262 7.912 24.7647 10.3287 24.494 13.19L15.91 14.582C15.9487 13.422 15.8327 12.3973 15.562 11.508C15.2913 10.6187 14.866 9.86467 14.286 9.246C13.7447 8.62733 13.0487 8.16333 12.198 7.854C11.3473 7.506 10.342 7.332 9.182 7.332C7.98333 7.332 6.978 7.48667 6.166 7.796C5.39267 8.10533 4.79333 8.53066 4.368 9.072C3.98133 9.61333 3.788 10.232 3.788 10.928C3.788 11.74 4.09733 12.4167 4.716 12.958C5.33467 13.4993 6.224 13.9827 7.384 14.408C8.544 14.7947 9.91667 15.2007 11.502 15.626C13.1647 16.09 14.8273 16.612 16.49 17.192C18.1913 17.7333 19.7573 18.468 21.188 19.396C22.6187 20.2853 23.7593 21.4453 24.61 22.876C25.4993 24.3067 25.944 26.124 25.944 28.328C25.944 30.88 25.2673 33.0067 23.914 34.708C22.5993 36.4093 20.7627 37.6853 18.404 38.536C16.084 39.3867 13.3967 39.812 10.342 39.812ZM46.7057 39.812C43.4577 39.812 40.6737 39.29 38.3537 38.246C36.0337 37.202 34.1391 35.752 32.6697 33.896C31.2004 32.04 30.1177 29.9327 29.4217 27.574C28.7644 25.1767 28.4357 22.644 28.4357 19.976C28.4357 17.2307 28.7837 14.64 29.4797 12.204C30.1757 9.768 31.2391 7.64133 32.6697 5.824C34.1391 3.968 36.0144 2.518 38.2957 1.474C40.5771 0.429999 43.3224 -0.0920014 46.5317 -0.0920014C49.3157 -0.0920014 51.7131 0.313998 53.7237 1.126C55.7344 1.89933 57.3391 2.982 58.5377 4.374C59.7751 5.72733 60.6257 7.29333 61.0897 9.072C61.5537 10.8507 61.6697 12.7067 61.4377 14.64L52.7957 15.684C52.8731 14.0213 52.6604 12.5907 52.1577 11.392C51.6937 10.1933 50.9591 9.26533 49.9537 8.608C48.9871 7.95067 47.7497 7.622 46.2417 7.622C44.9657 7.622 43.8251 7.87333 42.8197 8.376C41.8531 8.87866 41.0217 9.63266 40.3257 10.638C39.6684 11.6433 39.1657 12.9 38.8177 14.408C38.4697 15.8773 38.2957 17.598 38.2957 19.57C38.2957 22.122 38.6051 24.3453 39.2237 26.24C39.8424 28.096 40.7897 29.546 42.0657 30.59C43.3417 31.5953 44.9464 32.098 46.8797 32.098C48.6584 32.098 50.0504 31.692 51.0557 30.88C52.0997 30.068 52.8344 28.9467 53.2597 27.516C53.6851 26.0853 53.8204 24.4807 53.6657 22.702L62.5397 23.456C62.7331 25.5827 62.5784 27.632 62.0757 29.604C61.6117 31.5373 60.7417 33.2773 59.4657 34.824C58.2284 36.3707 56.5464 37.5887 54.4197 38.478C52.3317 39.3673 49.7604 39.812 46.7057 39.812ZM88.7476 39V0.719998H98.1436V39H88.7476ZM65.8376 39V0.719998L75.2336 0.719998V39H65.8376ZM72.8556 23.688V15.8L93.6776 15.8V23.688H72.8556ZM119.471 39.812C116.765 39.812 114.329 39.3867 112.163 38.536C109.998 37.6853 108.161 36.4287 106.653 34.766C105.145 33.1033 103.985 31.0347 103.173 28.56C102.4 26.0853 102.013 23.2433 102.013 20.034C102.013 15.4713 102.748 11.7207 104.217 8.782C105.725 5.80466 107.813 3.58133 110.481 2.112C113.188 0.642665 116.301 -0.0920014 119.819 -0.0920014C122.526 -0.0920014 124.943 0.333332 127.069 1.184C129.235 1.996 131.071 3.23333 132.579 4.896C134.087 6.55867 135.228 8.64667 136.001 11.16C136.813 13.6347 137.219 16.5153 137.219 19.802C137.219 23.1273 136.794 26.0467 135.943 28.56C135.131 31.0733 133.933 33.1613 132.347 34.824C130.801 36.4867 128.925 37.7433 126.721 38.594C124.556 39.406 122.139 39.812 119.471 39.812ZM119.819 32.098C121.559 32.098 122.99 31.6727 124.111 30.822C125.271 29.9327 126.122 28.618 126.663 26.878C127.243 25.0993 127.533 22.876 127.533 20.208C127.533 17.3853 127.224 15.046 126.605 13.19C126.025 11.334 125.136 9.942 123.937 9.014C122.777 8.04733 121.308 7.564 119.529 7.564C117.828 7.564 116.397 8.028 115.237 8.956C114.077 9.84533 113.207 11.1987 112.627 13.016C112.047 14.8333 111.757 17.0953 111.757 19.802C111.757 21.8513 111.912 23.6493 112.221 25.196C112.569 26.7427 113.072 28.038 113.729 29.082C114.425 30.0873 115.276 30.8413 116.281 31.344C117.287 31.8467 118.466 32.098 119.819 32.098ZM157.817 39.812C155.11 39.812 152.674 39.3867 150.509 38.536C148.344 37.6853 146.507 36.4287 144.999 34.766C143.491 33.1033 142.331 31.0347 141.519 28.56C140.746 26.0853 140.359 23.2433 140.359 20.034C140.359 15.4713 141.094 11.7207 142.563 8.782C144.071 5.80466 146.159 3.58133 148.827 2.112C151.534 0.642665 154.646 -0.0920014 158.165 -0.0920014C160.872 -0.0920014 163.288 0.333332 165.415 1.184C167.58 1.996 169.417 3.23333 170.925 4.896C172.433 6.55867 173.574 8.64667 174.347 11.16C175.159 13.6347 175.565 16.5153 175.565 19.802C175.565 23.1273 175.14 26.0467 174.289 28.56C173.477 31.0733 172.278 33.1613 170.693 34.824C169.146 36.4867 167.271 37.7433 165.067 38.594C162.902 39.406 160.485 39.812 157.817 39.812ZM158.165 32.098C159.905 32.098 161.336 31.6727 162.457 30.822C163.617 29.9327 164.468 28.618 165.009 26.878C165.589 25.0993 165.879 22.876 165.879 20.208C165.879 17.3853 165.57 15.046 164.951 13.19C164.371 11.334 163.482 9.942 162.283 9.014C161.123 8.04733 159.654 7.564 157.875 7.564C156.174 7.564 154.743 8.028 153.583 8.956C152.423 9.84533 151.553 11.1987 150.973 13.016C150.393 14.8333 150.103 17.0953 150.103 19.802C150.103 21.8513 150.258 23.6493 150.567 25.196C150.915 26.7427 151.418 28.038 152.075 29.082C152.771 30.0873 153.622 30.8413 154.627 31.344C155.632 31.8467 156.812 32.098 158.165 32.098ZM179.459 39V0.719998H188.855V39L179.459 39ZM181.083 39V30.996L203.413 30.996V39L181.083 39ZM221.158 39.812C218.452 39.812 216.074 39.5027 214.024 38.884C212.014 38.2653 210.332 37.376 208.978 36.216C207.625 35.056 206.62 33.664 205.962 32.04C205.344 30.3773 205.073 28.5407 205.15 26.53L213.85 24.616C213.928 26.3947 214.295 27.8447 214.952 28.966C215.648 30.0487 216.576 30.8607 217.736 31.402C218.896 31.9047 220.192 32.156 221.622 32.156C222.782 32.156 223.807 32.0207 224.696 31.75C225.586 31.4407 226.282 31.0347 226.784 30.532C227.326 29.9907 227.596 29.372 227.596 28.676C227.596 27.748 227.248 26.994 226.552 26.414C225.856 25.7953 224.89 25.2733 223.652 24.848C222.454 24.4227 221.081 23.9973 219.534 23.572C217.872 23.108 216.209 22.6053 214.546 22.064C212.922 21.484 211.434 20.7687 210.08 19.918C208.727 19.0673 207.625 17.9653 206.774 16.612C205.962 15.2587 205.556 13.5767 205.556 11.566C205.556 9.09133 206.175 6.984 207.412 5.244C208.688 3.504 210.428 2.18933 212.632 1.3C214.875 0.371998 217.427 -0.0920014 220.288 -0.0920014C223.304 -0.0920014 225.992 0.429999 228.35 1.474C230.709 2.47933 232.526 3.968 233.802 5.94C235.078 7.912 235.581 10.3287 235.31 13.19L226.726 14.582C226.765 13.422 226.649 12.3973 226.378 11.508C226.108 10.6187 225.682 9.86467 225.102 9.246C224.561 8.62733 223.865 8.16333 223.014 7.854C222.164 7.506 221.158 7.332 219.998 7.332C218.8 7.332 217.794 7.48667 216.982 7.796C216.209 8.10533 215.61 8.53066 215.184 9.072C214.798 9.61333 214.604 10.232 214.604 10.928C214.604 11.74 214.914 12.4167 215.532 12.958C216.151 13.4993 217.04 13.9827 218.2 14.408C219.36 14.7947 220.733 15.2007 222.318 15.626C223.981 16.09 225.644 16.612 227.306 17.192C229.008 17.7333 230.574 18.468 232.004 19.396C233.435 20.2853 234.576 21.4453 235.426 22.876C236.316 24.3067 236.76 26.124 236.76 28.328C236.76 30.88 236.084 33.0067 234.73 34.708C233.416 36.4093 231.579 37.6853 229.22 38.536C226.9 39.3867 224.213 39.812 221.158 39.812Z" fill="#ED5724"/>
<path d="M3.266 90L3.266 51.72H12.662L12.662 90H3.266ZM-6.188 59.724L-6.188 51.72H22.116V59.724H-6.188ZM25.2263 90V51.72H34.6223V90H25.2263ZM32.2443 90V82.17H52.6023V90H32.2443ZM32.2443 74.224V67.206H49.9343V74.224H32.2443ZM32.2443 59.55V51.72H52.6023V59.55H32.2443ZM72.5339 90.812C69.2859 90.812 66.5019 90.29 64.1819 89.246C61.8619 88.202 59.9672 86.752 58.4979 84.896C57.0285 83.04 55.9459 80.9327 55.2499 78.574C54.5925 76.1767 54.2639 73.644 54.2639 70.976C54.2639 68.2307 54.6119 65.64 55.3079 63.204C56.0039 60.768 57.0672 58.6413 58.4979 56.824C59.9672 54.968 61.8425 53.518 64.1239 52.474C66.4052 51.43 69.1505 50.908 72.3599 50.908C75.1439 50.908 77.5412 51.314 79.5519 52.126C81.5625 52.8993 83.1672 53.982 84.3659 55.374C85.6032 56.7273 86.4539 58.2933 86.9179 60.072C87.3819 61.8507 87.4979 63.7067 87.2659 65.64L78.6239 66.684C78.7012 65.0213 78.4885 63.5907 77.9859 62.392C77.5219 61.1933 76.7872 60.2653 75.7819 59.608C74.8152 58.9507 73.5779 58.622 72.0699 58.622C70.7939 58.622 69.6532 58.8733 68.6479 59.376C67.6812 59.8787 66.8499 60.6327 66.1539 61.638C65.4965 62.6433 64.9939 63.9 64.6459 65.408C64.2979 66.8773 64.1239 68.598 64.1239 70.57C64.1239 73.122 64.4332 75.3453 65.0519 77.24C65.6705 79.096 66.6179 80.546 67.8939 81.59C69.1699 82.5953 70.7745 83.098 72.7079 83.098C74.4865 83.098 75.8785 82.692 76.8839 81.88C77.9279 81.068 78.6625 79.9467 79.0879 78.516C79.5132 77.0853 79.6485 75.4807 79.4939 73.702L88.3679 74.456C88.5612 76.5827 88.4065 78.632 87.9039 80.604C87.4399 82.5373 86.5699 84.2773 85.2939 85.824C84.0565 87.3707 82.3745 88.5887 80.2479 89.478C78.1599 90.3673 75.5885 90.812 72.5339 90.812ZM114.576 90V51.72H123.972V90H114.576ZM91.6657 90V51.72H101.062V90H91.6657ZM98.6837 74.688V66.8H119.506V74.688H98.6837ZM148.323 90V51.72H157.719V90H148.323ZM138.869 59.724V51.72H167.173V59.724L138.869 59.724ZM170.283 90V51.72H179.679V90H170.283ZM177.301 90V82.17L197.659 82.17V90L177.301 90ZM177.301 74.224V67.206H194.991V74.224L177.301 74.224ZM177.301 59.55V51.72H197.659V59.55H177.301ZM199.517 90L212.335 51.72H224.515L237.275 90H227.125L218.541 59.318H218.193L209.551 90H199.517ZM206.767 83.214V76.602H231.185V83.214H206.767ZM239.838 90V51.72H253.932L261.762 78.922H261.878L269.534 51.72H282.874V90H274.174V61.174H274.058L265.416 90H257.18L248.654 61.174H248.538V90H239.838ZM302.551 90.812C299.844 90.812 297.466 90.5027 295.417 89.884C293.406 89.2653 291.724 88.376 290.371 87.216C289.018 86.056 288.012 84.664 287.355 83.04C286.736 81.3773 286.466 79.5407 286.543 77.53L295.243 75.616C295.32 77.3947 295.688 78.8447 296.345 79.966C297.041 81.0487 297.969 81.8607 299.129 82.402C300.289 82.9047 301.584 83.156 303.015 83.156C304.175 83.156 305.2 83.0207 306.089 82.75C306.978 82.4407 307.674 82.0347 308.177 81.532C308.718 80.9907 308.989 80.372 308.989 79.676C308.989 78.748 308.641 77.994 307.945 77.414C307.249 76.7953 306.282 76.2733 305.045 75.848C303.846 75.4227 302.474 74.9973 300.927 74.572C299.264 74.108 297.602 73.6053 295.939 73.064C294.315 72.484 292.826 71.7687 291.473 70.918C290.12 70.0673 289.018 68.9653 288.167 67.612C287.355 66.2587 286.949 64.5767 286.949 62.566C286.949 60.0913 287.568 57.984 288.805 56.244C290.081 54.504 291.821 53.1893 294.025 52.3C296.268 51.372 298.82 50.908 301.681 50.908C304.697 50.908 307.384 51.43 309.743 52.474C312.102 53.4793 313.919 54.968 315.195 56.94C316.471 58.912 316.974 61.3287 316.703 64.19L308.119 65.582C308.158 64.422 308.042 63.3973 307.771 62.508C307.5 61.6187 307.075 60.8647 306.495 60.246C305.954 59.6273 305.258 59.1633 304.407 58.854C303.556 58.506 302.551 58.332 301.391 58.332C300.192 58.332 299.187 58.4867 298.375 58.796C297.602 59.1053 297.002 59.5307 296.577 60.072C296.19 60.6133 295.997 61.232 295.997 61.928C295.997 62.74 296.306 63.4167 296.925 63.958C297.544 64.4993 298.433 64.9827 299.593 65.408C300.753 65.7947 302.126 66.2007 303.711 66.626C305.374 67.09 307.036 67.612 308.699 68.192C310.4 68.7333 311.966 69.468 313.397 70.396C314.828 71.2853 315.968 72.4453 316.819 73.876C317.708 75.3067 318.153 77.124 318.153 79.328C318.153 81.88 317.476 84.0067 316.123 85.708C314.808 87.4093 312.972 88.6853 310.613 89.536C308.293 90.3867 305.606 90.812 302.551 90.812Z" fill="#ED5724"/>
<path d="M12.778 140.812C9.53 140.812 6.746 140.29 4.426 139.246C2.106 138.202 0.211334 136.752 -1.258 134.896C-2.72733 133.04 -3.81 130.933 -4.506 128.574C-5.16333 126.177 -5.492 123.644 -5.492 120.976C-5.492 118.231 -5.144 115.64 -4.448 113.204C-3.752 110.768 -2.68867 108.641 -1.258 106.824C0.211334 104.968 2.08667 103.518 4.368 102.474C6.64933 101.43 9.39467 100.908 12.604 100.908C15.388 100.908 17.7853 101.314 19.796 102.126C21.8067 102.899 23.4113 103.982 24.61 105.374C25.8473 106.727 26.698 108.293 27.162 110.072C27.626 111.851 27.742 113.707 27.51 115.64L18.868 116.684C18.9453 115.021 18.7327 113.591 18.23 112.392C17.766 111.193 17.0313 110.265 16.026 109.608C15.0593 108.951 13.822 108.622 12.314 108.622C11.038 108.622 9.89733 108.873 8.892 109.376C7.92533 109.879 7.094 110.633 6.398 111.638C5.74067 112.643 5.238 113.9 4.89 115.408C4.542 116.877 4.368 118.598 4.368 120.57C4.368 123.122 4.67733 125.345 5.296 127.24C5.91467 129.096 6.862 130.546 8.138 131.59C9.414 132.595 11.0187 133.098 12.952 133.098C14.7307 133.098 16.1227 132.692 17.128 131.88C18.172 131.068 18.9067 129.947 19.332 128.516C19.7573 127.085 19.8927 125.481 19.738 123.702L28.612 124.456C28.8053 126.583 28.6507 128.632 28.148 130.604C27.684 132.537 26.814 134.277 25.538 135.824C24.3007 137.371 22.6187 138.589 20.492 139.478C18.404 140.367 15.8327 140.812 12.778 140.812ZM31.9098 140V101.72H47.8018C49.5032 101.72 51.1078 101.875 52.6158 102.184C54.1625 102.455 55.5545 102.88 56.7918 103.46C58.0678 104.04 59.1698 104.775 60.0978 105.664C61.0258 106.553 61.7412 107.617 62.2438 108.854C62.7465 110.053 62.9978 111.425 62.9978 112.972C62.9978 114.171 62.7852 115.311 62.3598 116.394C61.9732 117.438 61.3352 118.385 60.4458 119.236C59.5952 120.087 58.4738 120.802 57.0818 121.382C55.7285 121.923 54.1045 122.31 52.2098 122.542V123.006C54.6845 123.122 56.5985 123.605 57.9518 124.456C59.3052 125.307 60.3105 126.389 60.9678 127.704C61.6638 128.98 62.1858 130.372 62.5338 131.88L64.5638 140H54.1818L52.7318 132.402C52.4998 131.087 52.1325 130.024 51.6298 129.212C51.1658 128.4 50.4892 127.801 49.5998 127.414C48.7105 127.027 47.5312 126.834 46.0618 126.834H41.3058V140H31.9098ZM41.3058 119.584H46.7578C48.8845 119.584 50.5085 119.178 51.6298 118.366C52.7512 117.554 53.3118 116.317 53.3118 114.654C53.3118 112.837 52.7898 111.483 51.7458 110.594C50.7018 109.705 49.1165 109.26 46.9898 109.26H41.3058V119.584ZM67.5934 140V101.72H76.9894V140H67.5934ZM74.6114 140V132.17H94.9694V140H74.6114ZM74.6114 124.224V117.206H92.3014V124.224H74.6114ZM74.6114 109.55V101.72H94.9694V109.55H74.6114ZM96.8277 140L109.646 101.72H121.826L134.586 140H124.436L115.852 109.318H115.504L106.862 140H96.8277ZM104.078 133.214V126.602H128.496V133.214H104.078ZM139.94 140V101.72H149.336V140H139.94ZM130.486 109.724V101.72L158.79 101.72V109.724L130.486 109.724ZM161.9 140V101.72H171.354V140H161.9ZM185.98 140L173.916 101.72H184.124L192.012 132.228H192.186L199.9 101.72H210.108L198.044 140H185.98ZM212.65 140V101.72H222.046V140H212.65ZM219.668 140V132.17H240.026V140H219.668ZM219.668 124.224V117.206H237.358V124.224H219.668ZM219.668 109.55V101.72H240.026V109.55H219.668ZM258.598 140.812C255.891 140.812 253.513 140.503 251.464 139.884C249.453 139.265 247.771 138.376 246.418 137.216C245.065 136.056 244.059 134.664 243.402 133.04C242.783 131.377 242.513 129.541 242.59 127.53L251.29 125.616C251.367 127.395 251.735 128.845 252.392 129.966C253.088 131.049 254.016 131.861 255.176 132.402C256.336 132.905 257.631 133.156 259.062 133.156C260.222 133.156 261.247 133.021 262.136 132.75C263.025 132.441 263.721 132.035 264.224 131.532C264.765 130.991 265.036 130.372 265.036 129.676C265.036 128.748 264.688 127.994 263.992 127.414C263.296 126.795 262.329 126.273 261.092 125.848C259.893 125.423 258.521 124.997 256.974 124.572C255.311 124.108 253.649 123.605 251.986 123.064C250.362 122.484 248.873 121.769 247.52 120.918C246.167 120.067 245.065 118.965 244.214 117.612C243.402 116.259 242.996 114.577 242.996 112.566C242.996 110.091 243.615 107.984 244.852 106.244C246.128 104.504 247.868 103.189 250.072 102.3C252.315 101.372 254.867 100.908 257.728 100.908C260.744 100.908 263.431 101.43 265.79 102.474C268.149 103.479 269.966 104.968 271.242 106.94C272.518 108.912 273.021 111.329 272.75 114.19L264.166 115.582C264.205 114.422 264.089 113.397 263.818 112.508C263.547 111.619 263.122 110.865 262.542 110.246C262.001 109.627 261.305 109.163 260.454 108.854C259.603 108.506 258.598 108.332 257.438 108.332C256.239 108.332 255.234 108.487 254.422 108.796C253.649 109.105 253.049 109.531 252.624 110.072C252.237 110.613 252.044 111.232 252.044 111.928C252.044 112.74 252.353 113.417 252.972 113.958C253.591 114.499 254.48 114.983 255.64 115.408C256.8 115.795 258.173 116.201 259.758 116.626C261.421 117.09 263.083 117.612 264.746 118.192C266.447 118.733 268.013 119.468 269.444 120.396C270.875 121.285 272.015 122.445 272.866 123.876C273.755 125.307 274.2 127.124 274.2 129.328C274.2 131.88 273.523 134.007 272.17 135.708C270.855 137.409 269.019 138.685 266.66 139.536C264.34 140.387 261.653 140.812 258.598 140.812Z" fill="#ED5724"/>
<mask id="path-4-outside-1_215_222" maskUnits="userSpaceOnUse" x="37" y="168" width="257" height="342" fill="black">
<rect fill="white" x="37" y="168" width="257" height="342"/>
<path d="M106.904 345.168C91.416 345.168 79.976 341.12 72.584 333.024C65.368 324.752 61.76 311.64 61.76 293.688V233.232H41.696L42.224 203.4H56.216C61.672 203.4 65.72 202.608 68.36 201.024C71 199.44 72.584 196.536 73.112 192.312L76.544 172.512H98.192V203.4H133.304V234.288H98.192V292.104C98.192 298.44 99.688 303.016 102.68 305.832C105.672 308.648 110.248 310.056 116.408 310.056C119.752 310.056 122.92 309.704 125.912 309C129.08 308.296 131.808 307.152 134.096 305.568V340.944C128.64 342.704 123.624 343.848 119.048 344.376C114.472 344.904 110.424 345.168 106.904 345.168ZM170.914 345.168C163.698 345.168 158.242 343.584 154.546 340.416C150.85 337.248 149.002 332.32 149.002 325.632C149.002 318.768 150.85 313.752 154.546 310.584C158.242 307.416 163.698 305.832 170.914 305.832C178.482 305.832 184.114 307.416 187.81 310.584C191.682 313.752 193.618 318.768 193.618 325.632C193.618 338.656 186.05 345.168 170.914 345.168ZM119.576 505.696C107.608 505.696 97.136 503.936 88.16 500.416C79.184 496.896 71.704 491.968 65.72 485.632C59.736 479.296 55.248 471.816 52.256 463.192C49.264 454.392 47.768 444.8 47.768 434.416C47.768 423.504 49.264 413.56 52.256 404.584C55.424 395.432 60 387.512 65.984 380.824C71.968 374.136 79.36 368.944 88.16 365.248C96.96 361.552 106.992 359.704 118.256 359.704C129.52 359.704 139.288 361.552 147.56 365.248C156.008 368.944 162.784 374.136 167.888 380.824C173.168 387.336 176.776 395.08 178.712 404.056L143.6 415.408C143.072 409.952 141.576 405.288 139.112 401.416C136.824 397.368 133.656 394.376 129.608 392.44C125.736 390.328 121.336 389.272 116.408 389.272C111.304 389.272 106.904 390.328 103.208 392.44C99.512 394.376 96.344 397.28 93.704 401.152C91.24 404.848 89.304 409.424 87.896 414.88C86.664 420.16 86.048 426.144 86.048 432.832C86.048 442.336 87.28 450.432 89.744 457.12C92.384 463.632 96.168 468.648 101.096 472.168C106.2 475.512 112.448 477.184 119.84 477.184C126.88 477.184 132.512 475.864 136.736 473.224C140.96 470.408 144.04 466.888 145.976 462.664C148.088 458.264 149.408 453.776 149.936 449.2L183.2 456.592C182.32 463.456 180.384 469.88 177.392 475.864C174.576 481.848 170.528 487.04 165.248 491.44C159.968 495.84 153.544 499.36 145.976 502C138.584 504.464 129.784 505.696 119.576 505.696ZM216.031 502V413.296H194.119V385.312L231.079 386.896V381.88C224.919 380.472 219.815 378.272 215.767 375.28C211.895 372.112 209.079 368.328 207.319 363.928C205.559 359.528 204.679 354.864 204.679 349.936C204.679 342.368 206.615 335.856 210.487 330.4C214.359 324.768 219.815 320.456 226.855 317.464C233.895 314.296 242.167 312.712 251.671 312.712C259.767 312.712 267.071 313.768 273.583 315.88C280.271 317.816 285.639 320.28 289.687 323.272L287.311 357.592C283.087 354.6 278.335 352.136 273.055 350.2C267.775 348.264 262.759 347.296 258.007 347.296C252.727 347.296 248.327 348.704 244.807 351.52C241.463 354.336 239.791 358.912 239.791 365.248C239.791 369.648 240.671 373.168 242.431 375.808C244.367 378.272 246.655 380.12 249.295 381.352C252.111 382.408 254.839 383.112 257.479 383.464H289.159V413.296H252.991V502H216.031Z"/>
</mask>
<path d="M72.584 333.024L69.5697 335.653L69.5995 335.688L69.6301 335.721L72.584 333.024ZM61.76 233.232H65.76V229.232H61.76V233.232ZM41.696 233.232L37.6966 233.161L37.6246 237.232H41.696V233.232ZM42.224 203.4V199.4H38.2942L38.2246 203.329L42.224 203.4ZM68.36 201.024L66.302 197.594L66.302 197.594L68.36 201.024ZM73.112 192.312L69.1708 191.629L69.1546 191.722L69.1429 191.816L73.112 192.312ZM76.544 172.512V168.512H73.1777L72.6028 171.829L76.544 172.512ZM98.192 172.512H102.192V168.512H98.192V172.512ZM98.192 203.4H94.192V207.4H98.192V203.4ZM133.304 203.4H137.304V199.4H133.304V203.4ZM133.304 234.288V238.288H137.304V234.288H133.304ZM98.192 234.288V230.288H94.192V234.288H98.192ZM102.68 305.832L99.9385 308.745L99.9385 308.745L102.68 305.832ZM125.912 309L125.044 305.095L125.02 305.101L124.996 305.106L125.912 309ZM134.096 305.568H138.096V297.934L131.819 302.279L134.096 305.568ZM134.096 340.944L135.324 344.751L138.096 343.857V340.944H134.096ZM119.048 344.376L119.506 348.35L119.506 348.35L119.048 344.376ZM106.904 341.168C92.0639 341.168 81.9016 337.297 75.5379 330.327L69.6301 335.721C78.0504 344.943 90.7681 349.168 106.904 349.168V341.168ZM75.5983 330.395C69.3143 323.191 65.76 311.248 65.76 293.688H57.76C57.76 312.032 61.4217 326.313 69.5697 335.653L75.5983 330.395ZM65.76 293.688V233.232H57.76V293.688H65.76ZM61.76 229.232H41.696V237.232H61.76V229.232ZM45.6954 233.303L46.2234 203.471L38.2246 203.329L37.6966 233.161L45.6954 233.303ZM42.224 207.4H56.216V199.4H42.224V207.4ZM56.216 207.4C61.9121 207.4 66.8421 206.6 70.418 204.454L66.302 197.594C64.5979 198.616 61.4319 199.4 56.216 199.4V207.4ZM70.418 204.454C74.4766 202.019 76.4626 197.756 77.0811 192.808L69.1429 191.816C68.7054 195.316 67.5234 196.861 66.302 197.594L70.418 204.454ZM77.0532 192.995L80.4852 173.195L72.6028 171.829L69.1708 191.629L77.0532 192.995ZM76.544 176.512H98.192V168.512H76.544V176.512ZM94.192 172.512V203.4H102.192V172.512H94.192ZM98.192 207.4H133.304V199.4H98.192V207.4ZM129.304 203.4V234.288H137.304V203.4H129.304ZM133.304 230.288H98.192V238.288H133.304V230.288ZM94.192 234.288V292.104H102.192V234.288H94.192ZM94.192 292.104C94.192 298.953 95.7965 304.846 99.9385 308.745L105.421 302.919C103.579 301.186 102.192 297.927 102.192 292.104H94.192ZM99.9385 308.745C103.97 312.539 109.727 314.056 116.408 314.056V306.056C110.769 306.056 107.374 304.757 105.421 302.919L99.9385 308.745ZM116.408 314.056C120.034 314.056 123.511 313.674 126.828 312.894L124.996 305.106C122.329 305.734 119.47 306.056 116.408 306.056V314.056ZM126.78 312.905C130.37 312.107 133.595 310.78 136.373 308.857L131.819 302.279C130.021 303.524 127.79 304.485 125.044 305.095L126.78 312.905ZM130.096 305.568V340.944H138.096V305.568H130.096ZM132.868 337.137C127.604 338.835 122.85 339.911 118.59 340.402L119.506 348.35C124.398 347.785 129.676 346.573 135.324 344.751L132.868 337.137ZM118.59 340.402C114.122 340.918 110.232 341.168 106.904 341.168V349.168C110.616 349.168 114.822 348.89 119.506 348.35L118.59 340.402ZM154.546 310.584L157.149 313.621L157.149 313.621L154.546 310.584ZM187.81 310.584L185.207 313.621L185.241 313.651L185.277 313.68L187.81 310.584ZM170.914 341.168C164.205 341.168 159.84 339.686 157.149 337.379L151.943 343.453C156.643 347.482 163.19 349.168 170.914 349.168V341.168ZM157.149 337.379C154.636 335.225 153.002 331.61 153.002 325.632H145.002C145.002 333.03 147.063 339.271 151.943 343.453L157.149 337.379ZM153.002 325.632C153.002 319.439 154.658 315.756 157.149 313.621L151.943 307.547C147.042 311.748 145.002 318.097 145.002 325.632H153.002ZM157.149 313.621C159.84 311.314 164.205 309.832 170.914 309.832V301.832C163.19 301.832 156.643 303.518 151.943 307.547L157.149 313.621ZM170.914 309.832C178.031 309.832 182.544 311.339 185.207 313.621L190.413 307.547C185.684 303.493 178.932 301.832 170.914 301.832V309.832ZM185.277 313.68C187.908 315.833 189.618 319.496 189.618 325.632H197.618C197.618 318.04 195.455 311.671 190.343 307.488L185.277 313.68ZM189.618 325.632C189.618 331.357 187.982 334.972 185.333 337.252C182.568 339.631 178 341.168 170.914 341.168V349.168C178.963 349.168 185.747 347.449 190.551 343.316C195.469 339.084 197.618 332.931 197.618 325.632H189.618ZM65.72 485.632L62.8119 488.378L62.8119 488.378L65.72 485.632ZM52.256 463.192L48.4689 464.48L48.4729 464.491L48.477 464.503L52.256 463.192ZM52.256 404.584L48.4761 403.276L48.4685 403.297L48.4613 403.319L52.256 404.584ZM65.984 380.824L68.965 383.491L68.965 383.491L65.984 380.824ZM88.16 365.248L89.7089 368.936L89.7089 368.936L88.16 365.248ZM147.56 365.248L145.928 368.9L145.942 368.906L145.957 368.913L147.56 365.248ZM167.888 380.824L164.708 383.251L164.744 383.297L164.781 383.343L167.888 380.824ZM178.712 404.056L179.943 407.862L183.385 406.749L182.622 403.213L178.712 404.056ZM143.6 415.408L139.619 415.793L140.098 420.744L144.831 419.214L143.6 415.408ZM139.112 401.416L135.63 403.384L135.681 403.475L135.737 403.563L139.112 401.416ZM129.608 392.44L127.693 395.952L127.786 396.003L127.882 396.049L129.608 392.44ZM103.208 392.44L105.064 395.983L105.129 395.949L105.193 395.913L103.208 392.44ZM93.704 401.152L90.3991 398.899L90.3874 398.916L90.3758 398.933L93.704 401.152ZM87.896 414.88L84.0229 413.88L84.0112 413.926L84.0006 413.971L87.896 414.88ZM89.744 457.12L85.9906 458.503L86.0129 458.563L86.037 458.623L89.744 457.12ZM101.096 472.168L98.771 475.423L98.8366 475.47L98.9039 475.514L101.096 472.168ZM136.736 473.224L138.856 476.616L138.906 476.585L138.955 476.552L136.736 473.224ZM145.976 462.664L142.37 460.933L142.355 460.965L142.34 460.997L145.976 462.664ZM149.936 449.2L150.804 445.295L146.471 444.332L145.962 448.742L149.936 449.2ZM183.2 456.592L187.168 457.101L187.632 453.479L184.068 452.687L183.2 456.592ZM177.392 475.864L173.814 474.075L173.793 474.118L173.773 474.161L177.392 475.864ZM145.976 502L147.241 505.795L147.267 505.786L147.293 505.777L145.976 502ZM119.576 501.696C107.991 501.696 98.0338 499.991 89.6204 496.692L86.6997 504.14C96.2382 507.881 107.225 509.696 119.576 509.696V501.696ZM89.6204 496.692C81.1341 493.364 74.1661 488.749 68.6281 482.886L62.8119 488.378C69.2419 495.187 77.2339 500.428 86.6997 504.14L89.6204 496.692ZM68.6281 482.886C63.0511 476.98 58.8505 469.996 56.035 461.881L48.477 464.503C51.6455 473.636 56.4209 481.612 62.8119 488.378L68.6281 482.886ZM56.0431 461.904C53.2076 453.565 51.768 444.413 51.768 434.416H43.768C43.768 445.187 45.3204 455.219 48.4689 464.48L56.0431 461.904ZM51.768 434.416C51.768 423.869 53.2137 414.36 56.0507 405.849L48.4613 403.319C45.3143 412.76 43.768 423.139 43.768 434.416H51.768ZM56.0359 405.892C59.0443 397.202 63.362 389.753 68.965 383.491L63.003 378.157C56.638 385.271 51.8037 393.662 48.4761 403.276L56.0359 405.892ZM68.965 383.491C74.5283 377.273 81.4206 372.417 89.7089 368.936L86.6111 361.56C77.2994 365.471 69.4077 370.999 63.003 378.157L68.965 383.491ZM89.7089 368.936C97.9385 365.48 107.43 363.704 118.256 363.704V355.704C106.554 355.704 95.9815 357.624 86.6111 361.56L89.7089 368.936ZM118.256 363.704C129.091 363.704 138.279 365.482 145.928 368.9L149.192 361.596C140.297 357.622 129.949 355.704 118.256 355.704V363.704ZM145.957 368.913C153.844 372.363 160.055 377.153 164.708 383.251L171.068 378.397C165.513 371.119 158.172 365.525 149.163 361.583L145.957 368.913ZM164.781 383.343C169.629 389.322 172.985 396.478 174.802 404.899L182.622 403.213C180.567 393.682 176.707 385.35 170.995 378.305L164.781 383.343ZM177.481 400.25L142.369 411.602L144.831 419.214L179.943 407.862L177.481 400.25ZM147.581 415.023C147.004 409.061 145.349 403.766 142.487 399.268L135.737 403.563C137.803 406.81 139.14 410.843 139.619 415.793L147.581 415.023ZM142.594 399.448C139.918 394.713 136.15 391.135 131.334 388.831L127.882 396.049C131.162 397.617 133.73 400.023 135.63 403.384L142.594 399.448ZM131.523 388.928C126.997 386.46 121.925 385.272 116.408 385.272V393.272C120.747 393.272 124.475 394.196 127.693 395.952L131.523 388.928ZM116.408 385.272C110.746 385.272 105.634 386.447 101.223 388.967L105.193 395.913C108.174 394.209 111.862 393.272 116.408 393.272V385.272ZM101.352 388.897C97.0059 391.173 93.3627 394.552 90.3991 398.899L97.0089 403.405C99.3253 400.008 102.018 397.579 105.064 395.983L101.352 388.897ZM90.3758 398.933C87.6066 403.087 85.5142 408.102 84.0229 413.88L91.7691 415.88C93.0938 410.746 94.8734 406.609 97.0322 403.371L90.3758 398.933ZM84.0006 413.971C82.6852 419.609 82.048 425.906 82.048 432.832H90.048C90.048 426.382 90.6428 420.711 91.7914 415.789L84.0006 413.971ZM82.048 432.832C82.048 442.66 83.3192 451.252 85.9906 458.503L93.4974 455.737C91.2408 449.612 90.048 442.012 90.048 432.832H82.048ZM86.037 458.623C88.9155 465.723 93.1317 471.395 98.771 475.423L103.421 468.913C99.2043 465.901 95.8525 461.541 93.451 455.617L86.037 458.623ZM98.9039 475.514C104.786 479.367 111.836 481.184 119.84 481.184V473.184C113.06 473.184 107.614 471.657 103.288 468.822L98.9039 475.514ZM119.84 481.184C127.334 481.184 133.785 479.785 138.856 476.616L134.616 469.832C131.239 471.943 126.426 473.184 119.84 473.184V481.184ZM138.955 476.552C143.737 473.364 147.339 469.291 149.612 464.331L142.34 460.997C140.741 464.485 138.183 467.452 134.517 469.896L138.955 476.552ZM149.582 464.395C151.875 459.618 153.328 454.702 153.91 449.658L145.962 448.742C145.488 452.85 144.301 456.91 142.37 460.933L149.582 464.395ZM149.068 453.105L182.332 460.497L184.068 452.687L150.804 445.295L149.068 453.105ZM179.232 456.083C178.408 462.517 176.599 468.507 173.814 474.075L180.97 477.653C184.169 471.253 186.232 464.395 187.168 457.101L179.232 456.083ZM173.773 474.161C171.215 479.596 167.537 484.326 162.687 488.367L167.809 494.513C173.519 489.754 177.937 484.1 181.011 477.567L173.773 474.161ZM162.687 488.367C157.832 492.413 151.847 495.716 144.659 498.223L147.293 505.777C155.241 503.004 162.104 499.267 167.809 494.513L162.687 488.367ZM144.711 498.205C137.831 500.499 129.48 501.696 119.576 501.696V509.696C130.088 509.696 139.337 508.429 147.241 505.795L144.711 498.205ZM216.031 502H212.031V506H216.031V502ZM216.031 413.296H220.031V409.296H216.031V413.296ZM194.119 413.296H190.119V417.296H194.119V413.296ZM194.119 385.312L194.29 381.316L190.119 381.137V385.312H194.119ZM231.079 386.896L230.908 390.892L235.079 391.071V386.896H231.079ZM231.079 381.88H235.079V378.691L231.97 377.981L231.079 381.88ZM215.767 375.28L213.234 378.376L213.31 378.438L213.389 378.497L215.767 375.28ZM207.319 363.928L203.605 365.414L203.605 365.414L207.319 363.928ZM210.487 330.4L213.749 332.715L213.766 332.691L213.783 332.666L210.487 330.4ZM226.855 317.464L228.419 321.145L228.458 321.129L228.496 321.112L226.855 317.464ZM273.583 315.88L272.349 319.685L272.409 319.705L272.471 319.722L273.583 315.88ZM289.687 323.272L293.677 323.548L293.829 321.359L292.064 320.055L289.687 323.272ZM287.311 357.592L284.999 360.856L290.81 364.972L291.301 357.868L287.311 357.592ZM273.055 350.2L274.432 346.444L274.432 346.444L273.055 350.2ZM244.807 351.52L242.308 348.397L242.269 348.428L242.23 348.46L244.807 351.52ZM242.431 375.808L239.103 378.027L239.189 378.157L239.286 378.279L242.431 375.808ZM249.295 381.352L247.603 384.977L247.745 385.043L247.89 385.097L249.295 381.352ZM257.479 383.464L256.95 387.429L257.213 387.464H257.479V383.464ZM289.159 383.464H293.159V379.464H289.159V383.464ZM289.159 413.296V417.296H293.159V413.296H289.159ZM252.991 413.296V409.296H248.991V413.296H252.991ZM252.991 502V506H256.991V502H252.991ZM220.031 502V413.296H212.031V502H220.031ZM216.031 409.296H194.119V417.296H216.031V409.296ZM198.119 413.296V385.312H190.119V413.296H198.119ZM193.948 389.308L230.908 390.892L231.25 382.9L194.29 381.316L193.948 389.308ZM235.079 386.896V381.88H227.079V386.896H235.079ZM231.97 377.981C226.215 376.665 221.652 374.656 218.144 372.063L213.389 378.497C217.978 381.888 223.623 384.279 230.188 385.779L231.97 377.981ZM218.3 372.184C214.921 369.42 212.528 366.179 211.033 362.442L203.605 365.414C205.63 370.477 208.869 374.804 213.234 378.376L218.3 372.184ZM211.033 362.442C209.469 358.534 208.679 354.376 208.679 349.936H200.679C200.679 355.352 201.648 360.522 203.605 365.414L211.033 362.442ZM208.679 349.936C208.679 343.084 210.419 337.408 213.749 332.715L207.225 328.085C202.811 334.304 200.679 341.652 200.679 349.936H208.679ZM213.783 332.666C217.174 327.734 221.993 323.876 228.419 321.145L225.29 313.783C217.636 317.036 211.544 321.802 207.191 328.134L213.783 332.666ZM228.496 321.112C234.915 318.223 242.605 316.712 251.671 316.712V308.712C241.728 308.712 232.874 310.369 225.213 313.816L228.496 321.112ZM251.671 316.712C259.422 316.712 266.301 317.723 272.349 319.685L274.817 312.075C267.841 309.813 260.111 308.712 251.671 308.712V316.712ZM272.471 319.722C278.865 321.573 283.758 323.864 287.309 326.489L292.064 320.055C287.52 316.696 281.677 314.059 274.695 312.038L272.471 319.722ZM285.696 322.996L283.32 357.316L291.301 357.868L293.677 323.548L285.696 322.996ZM289.623 354.328C285.087 351.115 280.015 348.492 274.432 346.444L271.678 353.955C276.654 355.78 281.087 358.085 284.999 360.856L289.623 354.328ZM274.432 346.444C268.79 344.376 263.306 343.296 258.007 343.296V351.296C262.212 351.296 266.76 352.152 271.678 353.955L274.432 346.444ZM258.007 343.296C251.981 343.296 246.655 344.919 242.308 348.397L247.306 354.643C249.999 352.489 253.473 351.296 258.007 351.296V343.296ZM242.23 348.46C237.636 352.329 235.791 358.278 235.791 365.248H243.791C243.791 359.546 245.29 356.343 247.383 354.58L242.23 348.46ZM235.791 365.248C235.791 370.143 236.765 374.521 239.103 378.027L245.759 373.589C244.576 371.815 243.791 369.153 243.791 365.248H235.791ZM239.286 378.279C241.579 381.198 244.353 383.46 247.603 384.977L250.986 377.727C248.957 376.78 247.155 375.346 245.576 373.337L239.286 378.279ZM247.89 385.097C250.953 386.246 253.975 387.032 256.95 387.429L258.008 379.499C255.702 379.192 253.268 378.57 250.699 377.607L247.89 385.097ZM257.479 387.464H289.159V379.464H257.479V387.464ZM285.159 383.464V413.296H293.159V383.464H285.159ZM289.159 409.296H252.991V417.296H289.159V409.296ZM248.991 413.296V502H256.991V413.296H248.991ZM252.991 498H216.031V506H252.991V498Z" fill="#ED5724" mask="url(#path-4-outside-1_215_222)"/>
</g>
<defs>
<clipPath id="clip0_215_222">
<rect width="332" height="484" fill="white"/>
</clipPath>
</defs>
</svg>
