<svg width="1526" height="242" viewBox="0 0 1526 242" fill="none" xmlns="http://www.w3.org/2000/svg">
<path d="M91.72 182.16C81.76 182.16 74.44 179.52 69.76 174.24C65.08 168.84 62.74 160.5 62.74 149.22V104.04H48.88L49.24 86.04H58.42C61.9 86.04 64.48 85.5 66.16 84.42C67.84 83.34 68.86 81.42 69.22 78.66L71.38 64.98H84.52V85.86H109.36V104.76H84.52V148.32C84.52 152.76 85.54 156 87.58 158.04C89.74 160.08 92.92 161.1 97.12 161.1C99.4 161.1 101.62 160.86 103.78 160.38C106.06 159.78 108.16 158.82 110.08 157.5V179.1C106.36 180.3 102.94 181.08 99.82 181.44C96.82 181.92 94.12 182.16 91.72 182.16ZM128.741 180V121.5V52.2H151.601V81.54C151.601 84.06 151.481 86.64 151.241 89.28C151.121 91.92 150.881 94.62 150.521 97.38C150.161 100.14 149.741 102.9 149.261 105.66C148.901 108.42 148.481 111.18 148.001 113.94H151.781C153.461 107.46 155.621 102 158.261 97.56C160.901 93 164.261 89.52 168.341 87.12C172.541 84.72 177.641 83.52 183.641 83.52C194.561 83.52 202.721 87.36 208.121 95.04C213.521 102.6 216.221 114.12 216.221 129.6V180H193.361V132.84C193.361 122.52 191.801 114.9 188.681 109.98C185.681 105.06 181.121 102.6 175.001 102.6C169.961 102.6 165.761 104.16 162.401 107.28C159.041 110.28 156.461 114.3 154.661 119.34C152.861 124.38 151.781 130.08 151.421 136.44V180H128.741ZM282.666 182.34C275.106 182.34 268.326 181.26 262.326 179.1C256.446 176.94 251.466 173.82 247.386 169.74C243.306 165.54 240.186 160.5 238.026 154.62C235.866 148.74 234.786 142.08 234.786 134.64C234.786 127.2 235.806 120.36 237.846 114.12C240.006 107.88 243.066 102.48 247.026 97.92C250.986 93.36 255.786 89.82 261.426 87.3C267.186 84.78 273.726 83.52 281.046 83.52C287.886 83.52 294.006 84.66 299.406 86.94C304.806 89.22 309.366 92.64 313.086 97.2C316.806 101.64 319.566 107.22 321.366 113.94C323.166 120.54 323.766 128.22 323.166 136.98L249.546 137.52V124.38L310.026 123.84L302.106 131.22C302.826 124.38 302.286 118.8 300.486 114.48C298.686 110.04 296.106 106.8 292.746 104.76C289.386 102.6 285.546 101.52 281.226 101.52C276.306 101.52 271.986 102.84 268.266 105.48C264.546 108 261.666 111.72 259.626 116.64C257.706 121.44 256.746 127.32 256.746 134.28C256.746 144.72 259.026 152.52 263.586 157.68C268.266 162.84 274.626 165.42 282.666 165.42C286.266 165.42 289.266 165 291.666 164.16C294.186 163.2 296.286 162 297.966 160.56C299.646 159 300.966 157.26 301.926 155.34C303.006 153.42 303.846 151.38 304.446 149.22L324.246 153.72C323.286 158.16 321.726 162.12 319.566 165.6C317.406 169.08 314.586 172.08 311.106 174.6C307.746 177.12 303.726 179.04 299.046 180.36C294.366 181.68 288.906 182.34 282.666 182.34ZM429.088 182.34C420.928 182.34 413.848 181.14 407.848 178.74C401.968 176.34 397.048 172.98 393.088 168.66C389.248 164.22 386.368 159.06 384.448 153.18C382.528 147.3 381.568 140.94 381.568 134.1C381.568 126.78 382.528 120.06 384.448 113.94C386.488 107.82 389.488 102.48 393.448 97.92C397.408 93.36 402.268 89.82 408.028 87.3C413.908 84.78 420.628 83.52 428.188 83.52C435.748 83.52 442.288 84.78 447.808 87.3C453.448 89.82 458.008 93.36 461.488 97.92C464.968 102.36 467.308 107.58 468.508 113.58L447.268 120.24C447.028 116.64 446.068 113.46 444.388 110.7C442.708 107.82 440.428 105.6 437.548 104.04C434.668 102.48 431.248 101.7 427.288 101.7C423.448 101.7 420.088 102.48 417.208 104.04C414.448 105.48 412.108 107.58 410.188 110.34C408.388 113.1 406.948 116.46 405.868 120.42C404.908 124.26 404.428 128.58 404.428 133.38C404.428 139.98 405.328 145.62 407.128 150.3C408.928 154.98 411.688 158.64 415.408 161.28C419.128 163.8 423.748 165.06 429.268 165.06C434.188 165.06 438.148 164.16 441.148 162.36C444.268 160.44 446.608 157.98 448.168 154.98C449.848 151.98 450.868 148.68 451.228 145.08L471.388 149.58C470.668 154.5 469.288 158.94 467.248 162.9C465.208 166.86 462.388 170.34 458.788 173.34C455.308 176.22 451.108 178.44 446.188 180C441.268 181.56 435.568 182.34 429.088 182.34ZM529.27 182.34C520.03 182.34 511.87 180.48 504.79 176.76C497.71 172.92 492.13 167.34 488.05 160.02C484.09 152.58 482.11 143.46 482.11 132.66C482.11 121.62 484.15 112.5 488.23 105.3C492.43 97.98 498.07 92.52 505.15 88.92C512.23 85.32 520.21 83.52 529.09 83.52C538.33 83.52 546.49 85.38 553.57 89.1C560.65 92.82 566.23 98.4 570.31 105.84C574.39 113.16 576.43 122.28 576.43 133.2C576.43 144.24 574.39 153.42 570.31 160.74C566.23 168.06 560.59 173.52 553.39 177.12C546.31 180.6 538.27 182.34 529.27 182.34ZM530.17 165.06C535.21 165.06 539.47 163.92 542.95 161.64C546.43 159.24 549.07 155.7 550.87 151.02C552.79 146.34 553.75 140.76 553.75 134.28C553.75 127.44 552.73 121.62 550.69 116.82C548.77 111.9 545.95 108.12 542.23 105.48C538.63 102.84 534.07 101.52 528.55 101.52C523.75 101.52 519.55 102.72 515.95 105.12C512.35 107.4 509.59 110.82 507.67 115.38C505.87 119.94 504.97 125.58 504.97 132.3C504.97 142.86 507.19 150.96 511.63 156.6C516.19 162.24 522.37 165.06 530.17 165.06ZM630.506 182.34C622.586 182.34 615.686 180.3 609.806 176.22C604.046 172.14 599.606 166.44 596.486 159.12C593.366 151.68 591.806 142.92 591.806 132.84C591.806 123.36 593.246 114.96 596.126 107.64C599.006 100.2 603.206 94.38 608.726 90.18C614.366 85.86 621.326 83.7 629.606 83.7C635.966 83.7 641.186 84.96 645.266 87.48C649.466 89.88 652.886 93.3 655.526 97.74C658.166 102.06 660.266 107.16 661.826 113.04H665.606C664.886 109.32 664.226 105.6 663.626 101.88C663.026 98.16 662.486 94.62 662.006 91.26C661.646 87.78 661.466 84.66 661.466 81.9V52.2H684.326V133.74V180H665.066L665.426 153.36H662.006C660.686 159.6 658.646 164.88 655.886 169.2C653.126 173.52 649.646 176.82 645.446 179.1C641.366 181.26 636.386 182.34 630.506 182.34ZM637.706 163.62C641.666 163.62 645.146 162.72 648.146 160.92C651.146 159 653.606 156.6 655.526 153.72C657.566 150.84 659.066 147.72 660.026 144.36C661.106 140.88 661.646 137.64 661.646 134.64V131.58C661.646 129.3 661.286 126.84 660.566 124.2C659.966 121.56 659.006 118.98 657.686 116.46C656.486 113.82 654.866 111.48 652.826 109.44C650.906 107.28 648.626 105.6 645.986 104.4C643.466 103.08 640.646 102.42 637.526 102.42C632.846 102.42 628.886 103.74 625.646 106.38C622.406 109.02 619.886 112.62 618.086 117.18C616.406 121.74 615.566 127.08 615.566 133.2C615.566 139.32 616.466 144.66 618.266 149.22C620.066 153.78 622.586 157.32 625.826 159.84C629.186 162.36 633.146 163.62 637.706 163.62ZM752.354 182.34C744.794 182.34 738.014 181.26 732.014 179.1C726.134 176.94 721.154 173.82 717.074 169.74C712.994 165.54 709.874 160.5 707.714 154.62C705.554 148.74 704.474 142.08 704.474 134.64C704.474 127.2 705.494 120.36 707.534 114.12C709.694 107.88 712.754 102.48 716.714 97.92C720.674 93.36 725.474 89.82 731.114 87.3C736.874 84.78 743.414 83.52 750.734 83.52C757.574 83.52 763.694 84.66 769.094 86.94C774.494 89.22 779.054 92.64 782.774 97.2C786.494 101.64 789.254 107.22 791.054 113.94C792.854 120.54 793.454 128.22 792.854 136.98L719.234 137.52V124.38L779.714 123.84L771.794 131.22C772.514 124.38 771.974 118.8 770.174 114.48C768.374 110.04 765.794 106.8 762.434 104.76C759.074 102.6 755.234 101.52 750.914 101.52C745.994 101.52 741.674 102.84 737.954 105.48C734.234 108 731.354 111.72 729.314 116.64C727.394 121.44 726.434 127.32 726.434 134.28C726.434 144.72 728.714 152.52 733.274 157.68C737.954 162.84 744.314 165.42 752.354 165.42C755.954 165.42 758.954 165 761.354 164.16C763.874 163.2 765.974 162 767.654 160.56C769.334 159 770.654 157.26 771.614 155.34C772.694 153.42 773.534 151.38 774.134 149.22L793.934 153.72C792.974 158.16 791.414 162.12 789.254 165.6C787.094 169.08 784.274 172.08 780.794 174.6C777.434 177.12 773.414 179.04 768.734 180.36C764.054 181.68 758.594 182.34 752.354 182.34ZM863.675 180V117.72H848.015V100.62L872.675 101.88V98.64C868.955 97.56 865.835 96 863.315 93.96C860.795 91.8 858.935 89.28 857.735 86.4C856.655 83.52 856.115 80.4 856.115 77.04C856.115 71.88 857.375 67.44 859.895 63.72C862.415 60 865.955 57.12 870.515 55.08C875.075 52.92 880.475 51.84 886.715 51.84C891.875 51.84 896.555 52.5 900.755 53.82C905.075 55.14 908.555 56.76 911.195 58.68L909.395 79.56C906.755 77.4 903.695 75.72 900.215 74.52C896.735 73.2 893.375 72.54 890.135 72.54C886.415 72.54 883.355 73.62 880.955 75.78C878.555 77.82 877.355 81.18 877.355 85.86C877.355 88.86 877.895 91.32 878.975 93.24C880.055 95.04 881.435 96.48 883.115 97.56C884.915 98.52 886.655 99.24 888.335 99.72H910.295V117.72H885.815V180H863.675ZM948.216 182.34C943.056 182.34 938.436 181.38 934.356 179.46C930.276 177.42 927.036 174.42 924.636 170.46C922.356 166.5 921.216 161.58 921.216 155.7C921.216 150.78 922.116 146.58 923.916 143.1C925.836 139.62 928.656 136.8 932.376 134.64C936.096 132.36 940.716 130.5 946.236 129.06C951.756 127.5 958.236 126.18 965.676 125.1C969.756 124.5 973.056 123.9 975.576 123.3C978.216 122.7 980.136 121.8 981.336 120.6C982.536 119.28 983.136 117.36 983.136 114.84C983.136 111.12 981.816 107.94 979.176 105.3C976.656 102.54 972.516 101.16 966.756 101.16C963.276 101.16 959.916 101.76 956.676 102.96C953.556 104.16 950.856 106.08 948.576 108.72C946.296 111.24 944.736 114.6 943.896 118.8L923.556 112.5C924.876 107.7 926.796 103.56 929.316 100.08C931.836 96.48 934.956 93.42 938.676 90.9C942.396 88.38 946.656 86.52 951.456 85.32C956.256 84.12 961.536 83.52 967.296 83.52C976.056 83.52 983.256 84.96 988.896 87.84C994.536 90.6 998.736 94.98 1001.5 100.98C1004.26 106.86 1005.64 114.48 1005.64 123.84V141.48C1005.64 145.56 1005.7 149.82 1005.82 154.26C1006.06 158.58 1006.3 162.96 1006.54 167.4C1006.9 171.72 1007.32 175.92 1007.8 180H987.456C986.976 176.64 986.556 173.04 986.196 169.2C985.836 165.36 985.536 161.46 985.296 157.5H982.416C980.736 162.06 978.336 166.26 975.216 170.1C972.096 173.82 968.256 176.82 963.696 179.1C959.256 181.26 954.096 182.34 948.216 182.34ZM957.216 165.6C959.616 165.6 962.016 165.18 964.416 164.34C966.936 163.5 969.396 162.24 971.796 160.56C974.196 158.88 976.416 156.84 978.456 154.44C980.496 151.92 982.236 148.98 983.676 145.62L983.316 129.6L987.636 130.32C985.596 132 983.076 133.32 980.076 134.28C977.076 135.24 973.896 135.96 970.536 136.44C967.296 136.92 963.996 137.52 960.636 138.24C957.396 138.84 954.456 139.68 951.816 140.76C949.176 141.72 947.076 143.16 945.516 145.08C943.956 146.88 943.176 149.4 943.176 152.64C943.176 156.72 944.496 159.9 947.136 162.18C949.776 164.46 953.136 165.6 957.216 165.6ZM1072.45 182.34C1064.29 182.34 1057.21 181.14 1051.21 178.74C1045.33 176.34 1040.41 172.98 1036.45 168.66C1032.61 164.22 1029.73 159.06 1027.81 153.18C1025.89 147.3 1024.93 140.94 1024.93 134.1C1024.93 126.78 1025.89 120.06 1027.81 113.94C1029.85 107.82 1032.85 102.48 1036.81 97.92C1040.77 93.36 1045.63 89.82 1051.39 87.3C1057.27 84.78 1063.99 83.52 1071.55 83.52C1079.11 83.52 1085.65 84.78 1091.17 87.3C1096.81 89.82 1101.37 93.36 1104.85 97.92C1108.33 102.36 1110.67 107.58 1111.87 113.58L1090.63 120.24C1090.39 116.64 1089.43 113.46 1087.75 110.7C1086.07 107.82 1083.79 105.6 1080.91 104.04C1078.03 102.48 1074.61 101.7 1070.65 101.7C1066.81 101.7 1063.45 102.48 1060.57 104.04C1057.81 105.48 1055.47 107.58 1053.55 110.34C1051.75 113.1 1050.31 116.46 1049.23 120.42C1048.27 124.26 1047.79 128.58 1047.79 133.38C1047.79 139.98 1048.69 145.62 1050.49 150.3C1052.29 154.98 1055.05 158.64 1058.77 161.28C1062.49 163.8 1067.11 165.06 1072.63 165.06C1077.55 165.06 1081.51 164.16 1084.51 162.36C1087.63 160.44 1089.97 157.98 1091.53 154.98C1093.21 151.98 1094.23 148.68 1094.59 145.08L1114.75 149.58C1114.03 154.5 1112.65 158.94 1110.61 162.9C1108.57 166.86 1105.75 170.34 1102.15 173.34C1098.67 176.22 1094.47 178.44 1089.55 180C1084.63 181.56 1078.93 182.34 1072.45 182.34ZM1163.81 182.16C1153.85 182.16 1146.53 179.52 1141.85 174.24C1137.17 168.84 1134.83 160.5 1134.83 149.22V104.04H1120.97L1121.33 86.04H1130.51C1133.99 86.04 1136.57 85.5 1138.25 84.42C1139.93 83.34 1140.95 81.42 1141.31 78.66L1143.47 64.98H1156.61V85.86H1181.45V104.76H1156.61V148.32C1156.61 152.76 1157.63 156 1159.67 158.04C1161.83 160.08 1165.01 161.1 1169.21 161.1C1171.49 161.1 1173.71 160.86 1175.87 160.38C1178.15 159.78 1180.25 158.82 1182.17 157.5V179.1C1178.45 180.3 1175.03 181.08 1171.91 181.44C1168.91 181.92 1166.21 182.16 1163.81 182.16ZM1241.71 182.34C1232.47 182.34 1224.31 180.48 1217.23 176.76C1210.15 172.92 1204.57 167.34 1200.49 160.02C1196.53 152.58 1194.55 143.46 1194.55 132.66C1194.55 121.62 1196.59 112.5 1200.67 105.3C1204.87 97.98 1210.51 92.52 1217.59 88.92C1224.67 85.32 1232.65 83.52 1241.53 83.52C1250.77 83.52 1258.93 85.38 1266.01 89.1C1273.09 92.82 1278.67 98.4 1282.75 105.84C1286.83 113.16 1288.87 122.28 1288.87 133.2C1288.87 144.24 1286.83 153.42 1282.75 160.74C1278.67 168.06 1273.03 173.52 1265.83 177.12C1258.75 180.6 1250.71 182.34 1241.71 182.34ZM1242.61 165.06C1247.65 165.06 1251.91 163.92 1255.39 161.64C1258.87 159.24 1261.51 155.7 1263.31 151.02C1265.23 146.34 1266.19 140.76 1266.19 134.28C1266.19 127.44 1265.17 121.62 1263.13 116.82C1261.21 111.9 1258.39 108.12 1254.67 105.48C1251.07 102.84 1246.51 101.52 1240.99 101.52C1236.19 101.52 1231.99 102.72 1228.39 105.12C1224.79 107.4 1222.03 110.82 1220.11 115.38C1218.31 119.94 1217.41 125.58 1217.41 132.3C1217.41 142.86 1219.63 150.96 1224.07 156.6C1228.63 162.24 1234.81 165.06 1242.61 165.06ZM1309.29 180V132.84V85.86H1328.37L1328.01 118.26H1331.25C1332.33 110.58 1334.01 104.22 1336.29 99.18C1338.57 94.02 1341.75 90.18 1345.83 87.66C1349.91 85.02 1354.95 83.7 1360.95 83.7C1362.15 83.7 1363.41 83.76 1364.73 83.88C1366.17 84 1367.73 84.3 1369.41 84.78L1368.51 108.72C1366.59 108 1364.61 107.52 1362.57 107.28C1360.65 106.92 1358.85 106.74 1357.17 106.74C1352.49 106.74 1348.41 107.94 1344.93 110.34C1341.57 112.74 1338.81 116.16 1336.65 120.6C1334.61 124.92 1333.05 130.08 1331.97 136.08V180H1309.29ZM1419.97 212.22C1415.17 212.22 1410.31 211.74 1405.39 210.78C1400.47 209.82 1395.85 208.32 1391.53 206.28C1387.33 204.36 1383.79 201.84 1380.91 198.72L1388.65 180C1392.13 183.96 1396.63 186.96 1402.15 189C1407.67 191.04 1413.25 192.06 1418.89 192.06C1425.49 192.06 1430.95 190.68 1435.27 187.92C1439.59 185.28 1442.89 181.14 1445.17 175.5C1447.45 169.86 1448.71 162.84 1448.95 154.44L1450.21 137.34H1446.43C1445.23 145.5 1443.25 152.16 1440.49 157.32C1437.73 162.36 1434.25 166.08 1430.05 168.48C1425.97 170.76 1421.17 171.9 1415.65 171.9C1408.81 171.9 1403.05 170.16 1398.37 166.68C1393.69 163.2 1390.15 158.04 1387.75 151.2C1385.47 144.36 1384.33 135.9 1384.33 125.82V85.86H1407.19V120.6C1407.19 131.88 1408.57 140.1 1411.33 145.26C1414.09 150.3 1418.29 152.82 1423.93 152.82C1426.93 152.82 1429.69 152.04 1432.21 150.48C1434.73 148.8 1436.83 146.46 1438.51 143.46C1440.31 140.34 1441.69 136.5 1442.65 131.94C1443.73 127.38 1444.33 122.16 1444.45 116.28V85.86H1467.31V155.34C1467.31 162.9 1466.65 169.74 1465.33 175.86C1464.13 181.86 1462.27 187.08 1459.75 191.52C1457.23 196.08 1454.05 199.92 1450.21 203.04C1446.49 206.16 1442.11 208.44 1437.07 209.88C1432.03 211.44 1426.33 212.22 1419.97 212.22Z" fill="#ED5724"/>
</svg>
