<svg width="366" height="196" viewBox="0 0 366 196" fill="none" xmlns="http://www.w3.org/2000/svg">
<path d="M60.08 159.16C55.16 159.16 51.44 158.08 48.92 155.92C46.4 153.76 45.14 150.4 45.14 145.84C45.14 141.16 46.4 137.74 48.92 135.58C51.44 133.42 55.16 132.34 60.08 132.34C65.24 132.34 69.08 133.42 71.6 135.58C74.24 137.74 75.56 141.16 75.56 145.84C75.56 154.72 70.4 159.16 60.08 159.16ZM126.652 159.16C116.092 159.16 108.292 156.4 103.252 150.88C98.3319 145.24 95.8719 136.3 95.8719 124.06V82.84H82.1919L82.5519 62.5H92.0919C95.8119 62.5 98.5719 61.96 100.372 60.88C102.172 59.8 103.252 57.82 103.612 54.94L105.952 41.44H120.712V62.5H144.652V83.56H120.712V122.98C120.712 127.3 121.732 130.42 123.772 132.34C125.812 134.26 128.932 135.22 133.132 135.22C135.412 135.22 137.572 134.98 139.612 134.5C141.772 134.02 143.632 133.24 145.192 132.16V156.28C141.472 157.48 138.052 158.26 134.932 158.62C131.812 158.98 129.052 159.16 126.652 159.16ZM206.308 159.52C198.148 159.52 191.008 158.32 184.888 155.92C178.768 153.52 173.668 150.16 169.588 145.84C165.508 141.52 162.448 136.42 160.408 130.54C158.368 124.54 157.348 118 157.348 110.92C157.348 103.48 158.368 96.7 160.408 90.58C162.568 84.34 165.688 78.94 169.768 74.38C173.848 69.82 178.888 66.28 184.888 63.76C190.888 61.24 197.728 59.98 205.408 59.98C213.088 59.98 219.748 61.24 225.388 63.76C231.148 66.28 235.768 69.82 239.248 74.38C242.848 78.82 245.308 84.1 246.628 90.22L222.688 97.96C222.328 94.24 221.308 91.06 219.628 88.42C218.068 85.66 215.908 83.62 213.148 82.3C210.508 80.86 207.508 80.14 204.148 80.14C200.668 80.14 197.668 80.86 195.148 82.3C192.628 83.62 190.468 85.6 188.668 88.24C186.988 90.76 185.668 93.88 184.708 97.6C183.868 101.2 183.448 105.28 183.448 109.84C183.448 116.32 184.288 121.84 185.968 126.4C187.768 130.84 190.348 134.26 193.708 136.66C197.188 138.94 201.448 140.08 206.488 140.08C211.288 140.08 215.128 139.18 218.008 137.38C220.888 135.46 222.988 133.06 224.308 130.18C225.748 127.18 226.648 124.12 227.008 121L249.688 126.04C249.088 130.72 247.768 135.1 245.727 139.18C243.808 143.26 241.048 146.8 237.448 149.8C233.848 152.8 229.468 155.2 224.308 157C219.268 158.68 213.268 159.52 206.308 159.52ZM272.072 157V96.52H257.132V77.44L282.332 78.52V75.1C278.132 74.14 274.652 72.64 271.892 70.6C269.252 68.44 267.332 65.86 266.132 62.86C264.932 59.86 264.332 56.68 264.332 53.32C264.332 48.16 265.652 43.72 268.292 40C270.932 36.16 274.652 33.22 279.452 31.18C284.252 29.02 289.892 27.94 296.372 27.94C301.892 27.94 306.872 28.66 311.312 30.1C315.872 31.42 319.532 33.1 322.292 35.14L320.672 58.54C317.792 56.5 314.552 54.82 310.952 53.5C307.352 52.18 303.932 51.52 300.692 51.52C297.092 51.52 294.092 52.48 291.692 54.4C289.412 56.32 288.272 59.44 288.272 63.76C288.272 66.76 288.872 69.16 290.072 70.96C291.392 72.64 292.952 73.9 294.752 74.74C296.672 75.46 298.532 75.94 300.332 76.18H321.932V96.52H297.272V157H272.072Z" fill="#ED5724"/>
</svg>
