<svg width="257" height="342" viewBox="0 0 257 342" fill="none" xmlns="http://www.w3.org/2000/svg">
<mask id="path-1-outside-1_197_34" maskUnits="userSpaceOnUse" x="0" y="0" width="257" height="342" fill="black">
<rect fill="white" width="257" height="342"/>
<path d="M69.904 177.168C54.416 177.168 42.976 173.12 35.584 165.024C28.368 156.752 24.76 143.64 24.76 125.688V65.232H4.696L5.224 35.4H19.216C24.672 35.4 28.72 34.608 31.36 33.024C34 31.44 35.584 28.536 36.112 24.312L39.544 4.51199H61.192V35.4H96.304V66.288H61.192V124.104C61.192 130.44 62.688 135.016 65.68 137.832C68.672 140.648 73.248 142.056 79.408 142.056C82.752 142.056 85.92 141.704 88.912 141C92.08 140.296 94.808 139.152 97.096 137.568V172.944C91.64 174.704 86.624 175.848 82.048 176.376C77.472 176.904 73.424 177.168 69.904 177.168ZM133.914 177.168C126.698 177.168 121.242 175.584 117.546 172.416C113.85 169.248 112.002 164.32 112.002 157.632C112.002 150.768 113.85 145.752 117.546 142.584C121.242 139.416 126.698 137.832 133.914 137.832C141.482 137.832 147.114 139.416 150.81 142.584C154.682 145.752 156.618 150.768 156.618 157.632C156.618 170.656 149.05 177.168 133.914 177.168ZM82.576 337.696C70.608 337.696 60.136 335.936 51.16 332.416C42.184 328.896 34.704 323.968 28.72 317.632C22.736 311.296 18.248 303.816 15.256 295.192C12.264 286.392 10.768 276.8 10.768 266.416C10.768 255.504 12.264 245.56 15.256 236.584C18.424 227.432 23 219.512 28.984 212.824C34.968 206.136 42.36 200.944 51.16 197.248C59.96 193.552 69.992 191.704 81.256 191.704C92.52 191.704 102.288 193.552 110.56 197.248C119.008 200.944 125.784 206.136 130.888 212.824C136.168 219.336 139.776 227.08 141.712 236.056L106.6 247.408C106.072 241.952 104.576 237.288 102.112 233.416C99.824 229.368 96.656 226.376 92.608 224.44C88.736 222.328 84.336 221.272 79.408 221.272C74.304 221.272 69.904 222.328 66.208 224.44C62.512 226.376 59.344 229.28 56.704 233.152C54.24 236.848 52.304 241.424 50.896 246.88C49.664 252.16 49.048 258.144 49.048 264.832C49.048 274.336 50.28 282.432 52.744 289.12C55.384 295.632 59.168 300.648 64.096 304.168C69.2 307.512 75.448 309.184 82.84 309.184C89.88 309.184 95.512 307.864 99.736 305.224C103.96 302.408 107.04 298.888 108.976 294.664C111.088 290.264 112.408 285.776 112.936 281.2L146.2 288.592C145.32 295.456 143.384 301.88 140.392 307.864C137.576 313.848 133.528 319.04 128.248 323.44C122.968 327.84 116.544 331.36 108.976 334C101.584 336.464 92.784 337.696 82.576 337.696ZM179.031 334V245.296H157.119V217.312L194.079 218.896V213.88C187.919 212.472 182.815 210.272 178.767 207.28C174.895 204.112 172.079 200.328 170.319 195.928C168.559 191.528 167.679 186.864 167.679 181.936C167.679 174.368 169.615 167.856 173.487 162.4C177.359 156.768 182.815 152.456 189.855 149.464C196.895 146.296 205.167 144.712 214.671 144.712C222.767 144.712 230.071 145.768 236.583 147.88C243.271 149.816 248.639 152.28 252.687 155.272L250.311 189.592C246.087 186.6 241.335 184.136 236.055 182.2C230.775 180.264 225.759 179.296 221.007 179.296C215.727 179.296 211.327 180.704 207.807 183.52C204.463 186.336 202.791 190.912 202.791 197.248C202.791 201.648 203.671 205.168 205.431 207.808C207.367 210.272 209.655 212.12 212.295 213.352C215.111 214.408 217.839 215.112 220.479 215.464H252.159V245.296H215.991V334H179.031Z"/>
</mask>
<path d="M35.584 165.024L32.5697 167.653L32.5995 167.688L32.6301 167.721L35.584 165.024ZM24.76 65.232H28.76V61.232H24.76V65.232ZM4.696 65.232L0.696626 65.1612L0.624577 69.232H4.696V65.232ZM5.224 35.4V31.4H1.29417L1.22463 35.3292L5.224 35.4ZM31.36 33.024L29.302 29.594L29.302 29.594L31.36 33.024ZM36.112 24.312L32.1708 23.6288L32.1546 23.722L32.1429 23.8159L36.112 24.312ZM39.544 4.51199V0.511995H36.1777L35.6028 3.82885L39.544 4.51199ZM61.192 4.51199H65.192V0.511995H61.192V4.51199ZM61.192 35.4H57.192V39.4H61.192V35.4ZM96.304 35.4H100.304V31.4H96.304V35.4ZM96.304 66.288V70.288H100.304V66.288H96.304ZM61.192 66.288V62.288H57.192V66.288H61.192ZM65.68 137.832L62.9385 140.745L62.9385 140.745L65.68 137.832ZM88.912 141L88.0443 137.095L88.02 137.101L87.9958 137.106L88.912 141ZM97.096 137.568H101.096V129.934L94.8192 134.279L97.096 137.568ZM97.096 172.944L98.324 176.751L101.096 175.857V172.944H97.096ZM82.048 176.376L82.5065 180.35L82.5065 180.35L82.048 176.376ZM69.904 173.168C55.0639 173.168 44.9016 169.297 38.5379 162.327L32.6301 167.721C41.0504 176.943 53.7681 181.168 69.904 181.168V173.168ZM38.5983 162.395C32.3143 155.191 28.76 143.248 28.76 125.688H20.76C20.76 144.032 24.4217 158.313 32.5697 167.653L38.5983 162.395ZM28.76 125.688V65.232H20.76V125.688H28.76ZM24.76 61.232H4.696V69.232H24.76V61.232ZM8.69537 65.3028L9.22337 35.4708L1.22463 35.3292L0.696626 65.1612L8.69537 65.3028ZM5.224 39.4H19.216V31.4H5.224V39.4ZM19.216 39.4C24.9121 39.4 29.8421 38.5995 33.418 36.454L29.302 29.594C27.5979 30.6165 24.4319 31.4 19.216 31.4V39.4ZM33.418 36.454C37.4766 34.0188 39.4626 29.7562 40.0811 24.8081L32.1429 23.8159C31.7054 27.3157 30.5234 28.8612 29.302 29.594L33.418 36.454ZM40.0532 24.9951L43.4852 5.19514L35.6028 3.82885L32.1708 23.6288L40.0532 24.9951ZM39.544 8.51199H61.192V0.511995H39.544V8.51199ZM57.192 4.51199V35.4H65.192V4.51199H57.192ZM61.192 39.4H96.304V31.4H61.192V39.4ZM92.304 35.4V66.288H100.304V35.4H92.304ZM96.304 62.288H61.192V70.288H96.304V62.288ZM57.192 66.288V124.104H65.192V66.288H57.192ZM57.192 124.104C57.192 130.953 58.7965 136.846 62.9385 140.745L68.4215 134.919C66.5795 133.186 65.192 129.927 65.192 124.104H57.192ZM62.9385 140.745C66.9696 144.539 72.7273 146.056 79.408 146.056V138.056C73.7687 138.056 70.3744 136.757 68.4215 134.919L62.9385 140.745ZM79.408 146.056C83.0337 146.056 86.5109 145.674 89.8282 144.894L87.9958 137.106C85.3291 137.734 82.4703 138.056 79.408 138.056V146.056ZM89.7797 144.905C93.3701 144.107 96.5948 142.78 99.3728 140.857L94.8192 134.279C93.0212 135.524 90.7899 136.485 88.0443 137.095L89.7797 144.905ZM93.096 137.568V172.944H101.096V137.568H93.096ZM95.868 169.137C90.6044 170.835 85.8499 171.911 81.5895 172.402L82.5065 180.35C87.3981 179.785 92.6756 178.573 98.324 176.751L95.868 169.137ZM81.5895 172.402C77.1222 172.918 73.2325 173.168 69.904 173.168V181.168C73.6155 181.168 77.8218 180.89 82.5065 180.35L81.5895 172.402ZM117.546 142.584L120.149 145.621L120.149 145.621L117.546 142.584ZM150.81 142.584L148.207 145.621L148.241 145.651L148.277 145.68L150.81 142.584ZM133.914 173.168C127.205 173.168 122.84 171.686 120.149 169.379L114.943 175.453C119.643 179.482 126.19 181.168 133.914 181.168V173.168ZM120.149 169.379C117.636 167.225 116.002 163.61 116.002 157.632H108.002C108.002 165.03 110.063 171.271 114.943 175.453L120.149 169.379ZM116.002 157.632C116.002 151.439 117.658 147.756 120.149 145.621L114.943 139.547C110.042 143.748 108.002 150.097 108.002 157.632H116.002ZM120.149 145.621C122.84 143.314 127.205 141.832 133.914 141.832V133.832C126.19 133.832 119.643 135.518 114.943 139.547L120.149 145.621ZM133.914 141.832C141.031 141.832 145.544 143.339 148.207 145.621L153.413 139.547C148.684 135.493 141.932 133.832 133.914 133.832V141.832ZM148.277 145.68C150.908 147.833 152.618 151.496 152.618 157.632H160.618C160.618 150.04 158.455 143.671 153.343 139.488L148.277 145.68ZM152.618 157.632C152.618 163.357 150.982 166.972 148.333 169.252C145.568 171.631 141 173.168 133.914 173.168V181.168C141.963 181.168 148.747 179.449 153.551 175.316C158.469 171.084 160.618 164.931 160.618 157.632H152.618ZM28.72 317.632L25.8119 320.378L25.8119 320.378L28.72 317.632ZM15.256 295.192L11.4689 296.48L11.4729 296.491L11.477 296.503L15.256 295.192ZM15.256 236.584L11.4761 235.276L11.4685 235.297L11.4613 235.319L15.256 236.584ZM28.984 212.824L31.965 215.491L31.965 215.491L28.984 212.824ZM51.16 197.248L52.7089 200.936L52.7089 200.936L51.16 197.248ZM110.56 197.248L108.928 200.9L108.942 200.906L108.957 200.913L110.56 197.248ZM130.888 212.824L127.708 215.251L127.744 215.297L127.781 215.343L130.888 212.824ZM141.712 236.056L142.943 239.862L146.385 238.749L145.622 235.213L141.712 236.056ZM106.6 247.408L102.619 247.793L103.098 252.744L107.831 251.214L106.6 247.408ZM102.112 233.416L98.6298 235.384L98.6812 235.475L98.7374 235.563L102.112 233.416ZM92.608 224.44L90.6926 227.952L90.7861 228.003L90.8822 228.049L92.608 224.44ZM66.208 224.44L68.064 227.983L68.1289 227.949L68.1926 227.913L66.208 224.44ZM56.704 233.152L53.3991 230.899L53.3874 230.916L53.3758 230.933L56.704 233.152ZM50.896 246.88L47.0229 245.88L47.0112 245.926L47.0006 245.971L50.896 246.88ZM52.744 289.12L48.9906 290.503L49.0129 290.563L49.037 290.623L52.744 289.12ZM64.096 304.168L61.771 307.423L61.8366 307.47L61.9039 307.514L64.096 304.168ZM99.736 305.224L101.856 308.616L101.906 308.585L101.955 308.552L99.736 305.224ZM108.976 294.664L105.37 292.933L105.355 292.965L105.34 292.997L108.976 294.664ZM112.936 281.2L113.804 277.295L109.471 276.332L108.962 280.742L112.936 281.2ZM146.2 288.592L150.168 289.101L150.632 285.479L147.068 284.687L146.2 288.592ZM140.392 307.864L136.814 306.075L136.793 306.118L136.773 306.161L140.392 307.864ZM108.976 334L110.241 337.795L110.267 337.786L110.293 337.777L108.976 334ZM82.576 333.696C70.9914 333.696 61.0338 331.991 52.6204 328.692L49.6997 336.14C59.2382 339.881 70.2247 341.696 82.576 341.696V333.696ZM52.6204 328.692C44.1341 325.364 37.1661 320.749 31.6281 314.886L25.8119 320.378C32.2419 327.187 40.2339 332.428 49.6997 336.14L52.6204 328.692ZM31.6281 314.886C26.0511 308.98 21.8505 301.996 19.035 293.881L11.477 296.503C14.6455 305.636 19.4209 313.612 25.8119 320.378L31.6281 314.886ZM19.0431 293.904C16.2076 285.565 14.768 276.413 14.768 266.416H6.768C6.768 277.187 8.32044 287.219 11.4689 296.48L19.0431 293.904ZM14.768 266.416C14.768 255.869 16.2137 246.36 19.0507 237.849L11.4613 235.319C8.31428 244.76 6.768 255.139 6.768 266.416H14.768ZM19.0359 237.892C22.0443 229.202 26.362 221.753 31.965 215.491L26.003 210.157C19.638 217.271 14.8037 225.662 11.4761 235.276L19.0359 237.892ZM31.965 215.491C37.5283 209.273 44.4206 204.417 52.7089 200.936L49.6111 193.56C40.2994 197.471 32.4077 202.999 26.003 210.157L31.965 215.491ZM52.7089 200.936C60.9385 197.48 70.4296 195.704 81.256 195.704V187.704C69.5544 187.704 58.9815 189.624 49.6111 193.56L52.7089 200.936ZM81.256 195.704C92.0906 195.704 101.279 197.482 108.928 200.9L112.192 193.596C103.297 189.622 92.9494 187.704 81.256 187.704V195.704ZM108.957 200.913C116.844 204.363 123.055 209.153 127.708 215.251L134.068 210.397C128.513 203.119 121.172 197.525 112.163 193.583L108.957 200.913ZM127.781 215.343C132.629 221.322 135.985 228.478 137.802 236.899L145.622 235.213C143.567 225.682 139.707 217.35 133.995 210.305L127.781 215.343ZM140.481 232.25L105.369 243.602L107.831 251.214L142.943 239.862L140.481 232.25ZM110.581 247.023C110.004 241.061 108.349 235.766 105.487 231.268L98.7374 235.563C100.803 238.81 102.14 242.843 102.619 247.793L110.581 247.023ZM105.594 231.448C102.918 226.713 99.1496 223.135 94.3338 220.831L90.8822 228.049C94.1624 229.617 96.7297 232.023 98.6298 235.384L105.594 231.448ZM94.5234 220.928C89.9975 218.46 84.9254 217.272 79.408 217.272V225.272C83.7466 225.272 87.4745 226.196 90.6926 227.952L94.5234 220.928ZM79.408 217.272C73.7465 217.272 68.6337 218.447 64.2234 220.967L68.1926 227.913C71.1743 226.209 74.8615 225.272 79.408 225.272V217.272ZM64.352 220.897C60.0059 223.173 56.3627 226.552 53.3991 230.899L60.0089 235.405C62.3253 232.008 65.0181 229.579 68.064 227.983L64.352 220.897ZM53.3758 230.933C50.6066 235.087 48.5142 240.102 47.0229 245.88L54.7691 247.88C56.0938 242.746 57.8734 238.609 60.0322 235.371L53.3758 230.933ZM47.0006 245.971C45.6852 251.609 45.048 257.906 45.048 264.832H53.048C53.048 258.382 53.6428 252.711 54.7914 247.789L47.0006 245.971ZM45.048 264.832C45.048 274.66 46.3192 283.252 48.9906 290.503L56.4974 287.737C54.2408 281.612 53.048 274.012 53.048 264.832H45.048ZM49.037 290.623C51.9155 297.723 56.1317 303.395 61.771 307.423L66.421 300.913C62.2043 297.901 58.8525 293.541 56.451 287.617L49.037 290.623ZM61.9039 307.514C67.7858 311.367 74.8355 313.184 82.84 313.184V305.184C76.0605 305.184 70.6142 303.657 66.2881 300.822L61.9039 307.514ZM82.84 313.184C90.3342 313.184 96.7852 311.785 101.856 308.616L97.616 301.832C94.2388 303.943 89.4258 305.184 82.84 305.184V313.184ZM101.955 308.552C106.737 305.364 110.339 301.291 112.612 296.331L105.34 292.997C103.741 296.485 101.183 299.452 97.5172 301.896L101.955 308.552ZM112.582 296.395C114.875 291.618 116.328 286.702 116.91 281.658L108.962 280.742C108.488 284.85 107.301 288.91 105.37 292.933L112.582 296.395ZM112.068 285.105L145.332 292.497L147.068 284.687L113.804 277.295L112.068 285.105ZM142.232 288.083C141.408 294.517 139.599 300.507 136.814 306.075L143.97 309.653C147.169 303.253 149.232 296.395 150.168 289.101L142.232 288.083ZM136.773 306.161C134.215 311.596 130.537 316.326 125.687 320.367L130.809 326.513C136.519 321.754 140.937 316.1 144.011 309.567L136.773 306.161ZM125.687 320.367C120.832 324.413 114.847 327.716 107.659 330.223L110.293 337.777C118.241 335.004 125.104 331.267 130.809 326.513L125.687 320.367ZM107.711 330.205C100.831 332.499 92.4796 333.696 82.576 333.696V341.696C93.0884 341.696 102.337 340.429 110.241 337.795L107.711 330.205ZM179.031 334H175.031V338H179.031V334ZM179.031 245.296H183.031V241.296H179.031V245.296ZM157.119 245.296H153.119V249.296H157.119V245.296ZM157.119 217.312L157.29 213.316L153.119 213.137V217.312H157.119ZM194.079 218.896L193.908 222.892L198.079 223.071V218.896H194.079ZM194.079 213.88H198.079V210.691L194.97 209.981L194.079 213.88ZM178.767 207.28L176.234 210.376L176.31 210.438L176.389 210.497L178.767 207.28ZM170.319 195.928L166.605 197.414L166.605 197.414L170.319 195.928ZM173.487 162.4L176.749 164.715L176.766 164.691L176.783 164.666L173.487 162.4ZM189.855 149.464L191.419 153.145L191.458 153.129L191.496 153.112L189.855 149.464ZM236.583 147.88L235.349 151.685L235.409 151.705L235.471 151.722L236.583 147.88ZM252.687 155.272L256.677 155.548L256.829 153.359L255.064 152.055L252.687 155.272ZM250.311 189.592L247.999 192.856L253.81 196.972L254.301 189.868L250.311 189.592ZM236.055 182.2L237.432 178.444L237.432 178.444L236.055 182.2ZM207.807 183.52L205.308 180.397L205.269 180.428L205.23 180.46L207.807 183.52ZM205.431 207.808L202.103 210.027L202.189 210.157L202.286 210.279L205.431 207.808ZM212.295 213.352L210.603 216.977L210.745 217.043L210.89 217.097L212.295 213.352ZM220.479 215.464L219.95 219.429L220.213 219.464H220.479V215.464ZM252.159 215.464H256.159V211.464H252.159V215.464ZM252.159 245.296V249.296H256.159V245.296H252.159ZM215.991 245.296V241.296H211.991V245.296H215.991ZM215.991 334V338H219.991V334H215.991ZM183.031 334V245.296H175.031V334H183.031ZM179.031 241.296H157.119V249.296H179.031V241.296ZM161.119 245.296V217.312H153.119V245.296H161.119ZM156.948 221.308L193.908 222.892L194.25 214.9L157.29 213.316L156.948 221.308ZM198.079 218.896V213.88H190.079V218.896H198.079ZM194.97 209.981C189.215 208.665 184.652 206.656 181.144 204.063L176.389 210.497C180.978 213.888 186.623 216.279 193.188 217.779L194.97 209.981ZM181.3 204.184C177.921 201.42 175.528 198.179 174.033 194.442L166.605 197.414C168.63 202.477 171.869 206.804 176.234 210.376L181.3 204.184ZM174.033 194.442C172.469 190.534 171.679 186.376 171.679 181.936H163.679C163.679 187.352 164.648 192.522 166.605 197.414L174.033 194.442ZM171.679 181.936C171.679 175.084 173.419 169.408 176.749 164.715L170.225 160.085C165.811 166.304 163.679 173.652 163.679 181.936H171.679ZM176.783 164.666C180.174 159.734 184.993 155.876 191.419 153.145L188.29 145.783C180.636 149.036 174.544 153.802 170.191 160.134L176.783 164.666ZM191.496 153.112C197.915 150.223 205.605 148.712 214.671 148.712V140.712C204.728 140.712 195.874 142.369 188.213 145.816L191.496 153.112ZM214.671 148.712C222.422 148.712 229.301 149.723 235.349 151.685L237.817 144.075C230.841 141.813 223.111 140.712 214.671 140.712V148.712ZM235.471 151.722C241.865 153.573 246.758 155.864 250.309 158.489L255.064 152.055C250.52 148.696 244.677 146.059 237.695 144.038L235.471 151.722ZM248.696 154.996L246.32 189.316L254.301 189.868L256.677 155.548L248.696 154.996ZM252.623 186.328C248.087 183.115 243.015 180.492 237.432 178.444L234.678 185.955C239.654 187.78 244.087 190.085 247.999 192.856L252.623 186.328ZM237.432 178.444C231.79 176.376 226.306 175.296 221.007 175.296V183.296C225.212 183.296 229.76 184.152 234.678 185.955L237.432 178.444ZM221.007 175.296C214.981 175.296 209.655 176.919 205.308 180.397L210.306 186.643C212.999 184.489 216.473 183.296 221.007 183.296V175.296ZM205.23 180.46C200.636 184.329 198.791 190.278 198.791 197.248H206.791C206.791 191.546 208.29 188.343 210.383 186.58L205.23 180.46ZM198.791 197.248C198.791 202.143 199.765 206.521 202.103 210.027L208.759 205.589C207.576 203.815 206.791 201.153 206.791 197.248H198.791ZM202.286 210.279C204.579 213.198 207.353 215.46 210.603 216.977L213.986 209.727C211.957 208.78 210.155 207.346 208.576 205.337L202.286 210.279ZM210.89 217.097C213.953 218.246 216.975 219.032 219.95 219.429L221.008 211.499C218.702 211.192 216.268 210.57 213.699 209.607L210.89 217.097ZM220.479 219.464H252.159V211.464H220.479V219.464ZM248.159 215.464V245.296H256.159V215.464H248.159ZM252.159 241.296H215.991V249.296H252.159V241.296ZM211.991 245.296V334H219.991V245.296H211.991ZM215.991 330H179.031V338H215.991V330Z" fill="white" mask="url(#path-1-outside-1_197_34)"/>
</svg>
